<?xml version="1.0" encoding="utf-8"?>
<!-- Generator: Adobe Illustrator 21.0.0, SVG Export Plug-In . SVG Version: 6.00 Build 0)  -->
<svg version="1.1" xmlns="http://www.w3.org/2000/svg" xmlns:xlink="http://www.w3.org/1999/xlink" x="0px" y="0px"
	 viewBox="0 0 632.7 637" style="enable-background:new 0 0 632.7 637;" xml:space="preserve">
<style type="text/css">
	.st0{fill:#FFFFFF;}
</style>
<g id="Layer_1">
	<image style="overflow:visible;" width="640" height="637" xlink:href="nails.png" >
	</image>
	<path class="st0" d="M319.2,288.5c-8.8-5.6-28-11.7-42,5.8c-14,17.5-27.2,38.5-42,78c0,0-8.5,20.7,6.7,30
		c10.7,6.6,34,31.2,51.7,6.1c14.4-20.4,45.7-62.1,45.9-85.8C339.5,314,334.5,298.3,319.2,288.5z"/>
	<path class="st0" d="M427.7,352.7c-8.4-6.5-25.5-19.6-46.5,4.5c-15.4,17.6-21.4,26-46.7,72c-5.5,10-5.1,20.5,14.2,34.5
		c8.1,5.9,28.5,19.7,43.7-1.2c8.9-12.3,21.5-28.4,32.5-45.7c5.2-8.2,12.6-15.8,14.5-25C440.7,385.3,447.5,367.9,427.7,352.7z"/>
	<path class="st0" d="M503.8,441.8c-8-8.9-25.8-16.7-49.5,2.3c-14.4,11.6-27.8,16.5-49.5,45.2c-8.7,11.6-15.8,15.7-2.2,34.3
		c4.9,6.7,15.8,21.5,38.9,11.8c11.6-4.9,23.8-16.5,39.6-28.7c13.6-10.4,26.3-21.1,28.8-36.8C511.2,462.9,513,452.1,503.8,441.8z"/>
</g>
<g id="Layer_2">
	<path class="st0" d="M234.2,188.1c-6.4-2.9-23.5-14.2-46,14.9c-6.1,7.9-11.2,15.8-17.3,26.3c-6.2,10.6-13.4,23.8-17.2,45.7
		c0,0-2.4,11,19.7,22.5c9.3,4.8,26,18.5,37.6,3.8c0,0,46.7-51.1,44.5-80.5C255.4,220.8,257.2,198.6,234.2,188.1z"/>
</g>
</svg>
